<mxfile host="app.diagrams.net" modified="2022-06-23T00:43:11.419Z" agent="5.0 (Windows)" etag="P0_b9EsjghEv38kIG1bN" version="20.0.3" type="github">
  <diagram id="cCKzUrJpiuCy2ue4IHiC" name="Page-1">
    <mxGraphModel dx="1422" dy="744" grid="1" gridSize="10" guides="1" tooltips="1" connect="1" arrows="1" fold="1" page="1" pageScale="1" pageWidth="1100" pageHeight="850" math="0" shadow="0">
      <root>
        <mxCell id="0" />
        <mxCell id="1" parent="0" />
        <mxCell id="cci_5xsf72-PQoOZfYOD-9" value="Module" style="shape=module;align=left;spacingLeft=20;align=center;verticalAlign=top;" vertex="1" parent="1">
          <mxGeometry x="190" y="20" width="890" height="480" as="geometry" />
        </mxCell>
        <mxCell id="4sUUyr0ulnRzayB8KKkA-56" value="Coordonnateur" style="shape=module;align=left;spacingLeft=20;align=center;verticalAlign=top;" parent="1" vertex="1">
          <mxGeometry x="40" y="170" width="130" height="40" as="geometry" />
        </mxCell>
        <mxCell id="4sUUyr0ulnRzayB8KKkA-57" value="FacadeServices" style="rounded=0;whiteSpace=wrap;html=1;fillColor=#FFFFFF;" parent="1" vertex="1">
          <mxGeometry x="250" y="170" width="120" height="40" as="geometry" />
        </mxCell>
        <mxCell id="4sUUyr0ulnRzayB8KKkA-58" value="" style="endArrow=none;html=1;rounded=0;exitX=1;exitY=0.5;exitDx=0;exitDy=0;entryX=0;entryY=0.5;entryDx=0;entryDy=0;" parent="1" source="4sUUyr0ulnRzayB8KKkA-56" target="4sUUyr0ulnRzayB8KKkA-57" edge="1">
          <mxGeometry width="50" height="50" relative="1" as="geometry">
            <mxPoint x="370" y="250" as="sourcePoint" />
            <mxPoint x="260" y="190" as="targetPoint" />
          </mxGeometry>
        </mxCell>
        <mxCell id="4sUUyr0ulnRzayB8KKkA-59" value="RegistreProjet" style="rounded=0;whiteSpace=wrap;html=1;fillColor=#CCCCCC;" parent="1" vertex="1">
          <mxGeometry x="450" y="170" width="120" height="40" as="geometry" />
        </mxCell>
        <mxCell id="4sUUyr0ulnRzayB8KKkA-60" value="Projet" style="rounded=0;whiteSpace=wrap;html=1;fillColor=#CCCCCC;" parent="1" vertex="1">
          <mxGeometry x="730" y="170" width="120" height="40" as="geometry" />
        </mxCell>
        <mxCell id="4sUUyr0ulnRzayB8KKkA-61" value="ProjetDTO" style="rounded=0;whiteSpace=wrap;html=1;" parent="1" vertex="1">
          <mxGeometry x="930" y="170" width="120" height="40" as="geometry" />
        </mxCell>
        <mxCell id="4sUUyr0ulnRzayB8KKkA-62" value="&lt;div&gt;RegistreProjet:&lt;/div&gt;&lt;div&gt;TreeMap&amp;lt;Integer, Projet&amp;gt;&lt;br&gt;&lt;/div&gt;" style="rounded=0;whiteSpace=wrap;html=1;fillColor=#CCCCCC;" parent="1" vertex="1">
          <mxGeometry x="670" y="360" width="120" height="80" as="geometry" />
        </mxCell>
        <mxCell id="4sUUyr0ulnRzayB8KKkA-63" value="&lt;div&gt;nouveauProjet:&lt;/div&gt;&lt;div&gt;Projet&lt;br&gt;&lt;/div&gt;" style="rounded=0;whiteSpace=wrap;html=1;fillColor=#CCCCCC;" parent="1" vertex="1">
          <mxGeometry x="840" y="350" width="120" height="40" as="geometry" />
        </mxCell>
        <mxCell id="4sUUyr0ulnRzayB8KKkA-64" value="" style="endArrow=none;html=1;rounded=0;exitX=1;exitY=0.5;exitDx=0;exitDy=0;entryX=0;entryY=0.5;entryDx=0;entryDy=0;" parent="1" source="4sUUyr0ulnRzayB8KKkA-57" target="4sUUyr0ulnRzayB8KKkA-59" edge="1">
          <mxGeometry width="50" height="50" relative="1" as="geometry">
            <mxPoint x="520" y="280" as="sourcePoint" />
            <mxPoint x="570" y="230" as="targetPoint" />
          </mxGeometry>
        </mxCell>
        <mxCell id="4sUUyr0ulnRzayB8KKkA-65" value="" style="endArrow=none;html=1;rounded=0;entryX=1;entryY=0.5;entryDx=0;entryDy=0;exitX=0;exitY=0.5;exitDx=0;exitDy=0;" parent="1" source="4sUUyr0ulnRzayB8KKkA-60" target="4sUUyr0ulnRzayB8KKkA-59" edge="1">
          <mxGeometry width="50" height="50" relative="1" as="geometry">
            <mxPoint x="520" y="280" as="sourcePoint" />
            <mxPoint x="570" y="230" as="targetPoint" />
          </mxGeometry>
        </mxCell>
        <mxCell id="4sUUyr0ulnRzayB8KKkA-66" value="" style="endArrow=none;html=1;rounded=0;entryX=1;entryY=0.5;entryDx=0;entryDy=0;exitX=0;exitY=0.5;exitDx=0;exitDy=0;" parent="1" source="4sUUyr0ulnRzayB8KKkA-61" target="4sUUyr0ulnRzayB8KKkA-60" edge="1">
          <mxGeometry width="50" height="50" relative="1" as="geometry">
            <mxPoint x="520" y="280" as="sourcePoint" />
            <mxPoint x="570" y="230" as="targetPoint" />
          </mxGeometry>
        </mxCell>
        <mxCell id="4sUUyr0ulnRzayB8KKkA-67" value="" style="endArrow=none;html=1;rounded=0;entryX=0.5;entryY=1;entryDx=0;entryDy=0;exitX=0.5;exitY=0;exitDx=0;exitDy=0;" parent="1" source="4sUUyr0ulnRzayB8KKkA-62" target="4sUUyr0ulnRzayB8KKkA-59" edge="1">
          <mxGeometry width="50" height="50" relative="1" as="geometry">
            <mxPoint x="520" y="280" as="sourcePoint" />
            <mxPoint x="570" y="230" as="targetPoint" />
          </mxGeometry>
        </mxCell>
        <mxCell id="4sUUyr0ulnRzayB8KKkA-68" value="" style="endArrow=none;html=1;rounded=0;exitX=0.5;exitY=0;exitDx=0;exitDy=0;" parent="1" source="4sUUyr0ulnRzayB8KKkA-63" edge="1">
          <mxGeometry width="50" height="50" relative="1" as="geometry">
            <mxPoint x="520" y="280" as="sourcePoint" />
            <mxPoint x="570" y="190" as="targetPoint" />
          </mxGeometry>
        </mxCell>
        <mxCell id="4sUUyr0ulnRzayB8KKkA-69" value="" style="endArrow=open;endFill=1;endSize=12;html=1;rounded=0;" parent="1" edge="1">
          <mxGeometry width="160" relative="1" as="geometry">
            <mxPoint x="180" y="150" as="sourcePoint" />
            <mxPoint x="240" y="150" as="targetPoint" />
          </mxGeometry>
        </mxCell>
        <mxCell id="4sUUyr0ulnRzayB8KKkA-70" value="1: creerProjet(projetDTO : ProjetDTO)" style="text;html=1;align=center;verticalAlign=middle;resizable=0;points=[];autosize=1;strokeColor=none;fillColor=none;fontSize=11;" parent="1" vertex="1">
          <mxGeometry x="115" y="120" width="190" height="20" as="geometry" />
        </mxCell>
        <mxCell id="4sUUyr0ulnRzayB8KKkA-71" value="" style="endArrow=open;endFill=1;endSize=12;html=1;rounded=0;" parent="1" edge="1">
          <mxGeometry width="160" relative="1" as="geometry">
            <mxPoint x="380" y="150" as="sourcePoint" />
            <mxPoint x="440" y="150" as="targetPoint" />
          </mxGeometry>
        </mxCell>
        <mxCell id="4sUUyr0ulnRzayB8KKkA-72" value="2: creerProjet(projetDTO : ProjetDTO)" style="text;html=1;align=center;verticalAlign=middle;resizable=0;points=[];autosize=1;strokeColor=none;fillColor=none;fontSize=11;" parent="1" vertex="1">
          <mxGeometry x="335" y="120" width="190" height="20" as="geometry" />
        </mxCell>
        <mxCell id="4sUUyr0ulnRzayB8KKkA-73" value="" style="endArrow=open;endFill=1;endSize=12;html=1;rounded=0;" parent="1" edge="1">
          <mxGeometry width="160" relative="1" as="geometry">
            <mxPoint x="590" y="150" as="sourcePoint" />
            <mxPoint x="720" y="150" as="targetPoint" />
          </mxGeometry>
        </mxCell>
        <mxCell id="4sUUyr0ulnRzayB8KKkA-74" value="3: nouveauProjet := Projet(projetDTO : ProjetDTO)" style="text;html=1;align=center;verticalAlign=middle;resizable=0;points=[];autosize=1;strokeColor=none;fillColor=none;fontSize=11;" parent="1" vertex="1">
          <mxGeometry x="550" y="120" width="250" height="20" as="geometry" />
        </mxCell>
        <mxCell id="4sUUyr0ulnRzayB8KKkA-75" value="" style="endArrow=open;endFill=1;endSize=12;html=1;rounded=0;fontSize=11;" parent="1" edge="1">
          <mxGeometry width="160" relative="1" as="geometry">
            <mxPoint x="860" y="150" as="sourcePoint" />
            <mxPoint x="930" y="150" as="targetPoint" />
          </mxGeometry>
        </mxCell>
        <mxCell id="4sUUyr0ulnRzayB8KKkA-76" value="4: getIdProjet()" style="edgeLabel;html=1;align=center;verticalAlign=middle;resizable=0;points=[];fontSize=11;labelPosition=center;verticalLabelPosition=middle;" parent="4sUUyr0ulnRzayB8KKkA-75" connectable="0" vertex="1">
          <mxGeometry x="0.3143" y="1" relative="1" as="geometry">
            <mxPoint x="-16" y="-99" as="offset" />
          </mxGeometry>
        </mxCell>
        <mxCell id="4sUUyr0ulnRzayB8KKkA-77" value="5: getNomProjet()" style="edgeLabel;html=1;align=center;verticalAlign=middle;resizable=0;points=[];fontSize=11;labelPosition=center;verticalLabelPosition=middle;" parent="4sUUyr0ulnRzayB8KKkA-75" connectable="0" vertex="1">
          <mxGeometry x="0.4571" y="-1" relative="1" as="geometry">
            <mxPoint x="-11" y="-81" as="offset" />
          </mxGeometry>
        </mxCell>
        <mxCell id="4sUUyr0ulnRzayB8KKkA-78" value="6: getDateDebut()" style="edgeLabel;html=1;align=center;verticalAlign=middle;resizable=0;points=[];fontSize=11;labelPosition=center;verticalLabelPosition=middle;" parent="4sUUyr0ulnRzayB8KKkA-75" connectable="0" vertex="1">
          <mxGeometry x="0.4286" y="3" relative="1" as="geometry">
            <mxPoint x="-10" y="-57" as="offset" />
          </mxGeometry>
        </mxCell>
        <mxCell id="4sUUyr0ulnRzayB8KKkA-79" value="7: getDateFin()" style="edgeLabel;html=1;align=center;verticalAlign=middle;resizable=0;points=[];fontSize=11;labelPosition=center;verticalLabelPosition=middle;" parent="4sUUyr0ulnRzayB8KKkA-75" connectable="0" vertex="1">
          <mxGeometry x="0.3714" y="3" relative="1" as="geometry">
            <mxPoint x="-18" y="-37" as="offset" />
          </mxGeometry>
        </mxCell>
        <mxCell id="4sUUyr0ulnRzayB8KKkA-80" value="8: getRegistreUsagerTechAssigne()" style="edgeLabel;html=1;align=center;verticalAlign=middle;resizable=0;points=[];fontSize=11;labelPosition=center;verticalLabelPosition=middle;" parent="4sUUyr0ulnRzayB8KKkA-75" connectable="0" vertex="1">
          <mxGeometry x="0.2571" y="4" relative="1" as="geometry">
            <mxPoint x="36" y="-16" as="offset" />
          </mxGeometry>
        </mxCell>
        <mxCell id="4sUUyr0ulnRzayB8KKkA-81" value="" style="endArrow=open;endFill=1;endSize=12;html=1;rounded=0;fontSize=11;" parent="1" edge="1">
          <mxGeometry width="160" relative="1" as="geometry">
            <mxPoint x="650" y="210" as="sourcePoint" />
            <mxPoint x="880" y="320" as="targetPoint" />
          </mxGeometry>
        </mxCell>
        <mxCell id="4sUUyr0ulnRzayB8KKkA-82" value="9: idProjet := getIdProjet()" style="edgeLabel;html=1;align=center;verticalAlign=middle;resizable=0;points=[];fontSize=11;" parent="4sUUyr0ulnRzayB8KKkA-81" connectable="0" vertex="1">
          <mxGeometry x="0.5079" y="3" relative="1" as="geometry">
            <mxPoint x="6" y="-30" as="offset" />
          </mxGeometry>
        </mxCell>
        <mxCell id="4sUUyr0ulnRzayB8KKkA-83" value="" style="endArrow=open;endFill=1;endSize=12;html=1;rounded=0;fontSize=11;" parent="1" edge="1">
          <mxGeometry width="160" relative="1" as="geometry">
            <mxPoint x="470" y="220" as="sourcePoint" />
            <mxPoint x="660" y="350" as="targetPoint" />
          </mxGeometry>
        </mxCell>
        <mxCell id="4sUUyr0ulnRzayB8KKkA-84" value="10: ajouterProjet(idProjet, nouveauProjet)" style="edgeLabel;html=1;align=center;verticalAlign=middle;resizable=0;points=[];fontSize=11;" parent="4sUUyr0ulnRzayB8KKkA-83" connectable="0" vertex="1">
          <mxGeometry x="0.5" relative="1" as="geometry">
            <mxPoint x="-30" y="-25" as="offset" />
          </mxGeometry>
        </mxCell>
        <mxCell id="cci_5xsf72-PQoOZfYOD-2" value="Proxy" style="html=1;" vertex="1" parent="1">
          <mxGeometry x="460" y="390" width="110" height="50" as="geometry" />
        </mxCell>
        <mxCell id="cci_5xsf72-PQoOZfYOD-4" value="" style="endArrow=none;html=1;rounded=0;entryX=0.5;entryY=1;entryDx=0;entryDy=0;" edge="1" parent="1" source="cci_5xsf72-PQoOZfYOD-2" target="4sUUyr0ulnRzayB8KKkA-57">
          <mxGeometry width="50" height="50" relative="1" as="geometry">
            <mxPoint x="60" y="290" as="sourcePoint" />
            <mxPoint x="110" y="240" as="targetPoint" />
          </mxGeometry>
        </mxCell>
        <mxCell id="cci_5xsf72-PQoOZfYOD-6" value="" style="endArrow=open;endFill=1;endSize=12;html=1;rounded=0;fontSize=11;" edge="1" parent="1">
          <mxGeometry width="160" relative="1" as="geometry">
            <mxPoint x="280" y="230" as="sourcePoint" />
            <mxPoint x="430" y="380" as="targetPoint" />
          </mxGeometry>
        </mxCell>
        <mxCell id="cci_5xsf72-PQoOZfYOD-7" value="11: persisterProjet(Projet : nouveauProjet.asProjetDTO())" style="edgeLabel;html=1;align=center;verticalAlign=middle;resizable=0;points=[];fontSize=11;" connectable="0" vertex="1" parent="cci_5xsf72-PQoOZfYOD-6">
          <mxGeometry x="0.5" relative="1" as="geometry">
            <mxPoint x="25" y="-25" as="offset" />
          </mxGeometry>
        </mxCell>
      </root>
    </mxGraphModel>
  </diagram>
</mxfile>
